<svg width="1200" height="300" viewBox="0 0 1200 300" xmlns="http://www.w3.org/2000/svg">
  <!-- Gradient background -->
  <defs>
    <linearGradient id="grad1" x1="0%" y1="0%" x2="100%" y2="0%">
      <stop offset="0%" style="stop-color:#1f2937;stop-opacity:1" />
      <stop offset="50%" style="stop-color:#6366f1;stop-opacity:1" />
      <stop offset="100%" style="stop-color:#00d4aa;stop-opacity:1" />
    </linearGradient>
  </defs>
  <rect width="1200" height="300" fill="url(#grad1)"/>
  
  <!-- Logo elements -->
  <circle cx="150" cy="150" r="80" fill="#ffffff" opacity="0.2"/>
  <rect x="110" y="110" width="80" height="80" fill="#6366f1" rx="10"/>
  <rect x="120" y="120" width="15" height="25" fill="#ffffff"/>
  <rect x="140" y="120" width="15" height="25" fill="#ffffff"/>
  <rect x="160" y="120" width="15" height="25" fill="#ffffff"/>
  <rect x="120" y="150" width="15" height="25" fill="#ffffff"/>
  <rect x="140" y="150" width="15" height="25" fill="#ffffff"/>
  <rect x="160" y="150" width="15" height="25" fill="#ffffff"/>
  
  <!-- Checkmark -->
  <path d="M 200 120 L 210 130 L 230 110" stroke="#00d4aa" stroke-width="6" stroke-linecap="round" stroke-linejoin="round" fill="none"/>
  
  <!-- Title -->
  <text x="350" y="140" fill="#ffffff" font-family="Arial, sans-serif" font-size="48" font-weight="bold">VeriAssets</text>
  <text x="350" y="180" fill="#ffffff" font-family="Arial, sans-serif" font-size="24">AI-Verified Real-World Asset Marketplace & Launchpad on Qubic</text>
  
  <!-- Blockchain pattern -->
  <circle cx="1000" cy="100" r="15" fill="#ffffff" opacity="0.5"/>
  <circle cx="1100" cy="100" r="15" fill="#ffffff" opacity="0.5"/>
  <circle cx="1000" cy="200" r="15" fill="#ffffff" opacity="0.5"/>
  <circle cx="1100" cy="200" r="15" fill="#ffffff" opacity="0.5"/>
  <line x1="1000" y1="100" x2="1100" y2="100" stroke="#ffffff" stroke-width="3" opacity="0.5"/>
  <line x1="1000" y1="100" x2="1000" y2="200" stroke="#ffffff" stroke-width="3" opacity="0.5"/>
  <line x1="1100" y1="100" x2="1100" y2="200" stroke="#ffffff" stroke-width="3" opacity="0.5"/>
  <line x1="1000" y1="200" x2="1100" y2="200" stroke="#ffffff" stroke-width="3" opacity="0.5"/>
</svg>